HIERARCHY
ROOT	Hips
{
	OFFSET	0.000	0.000	0.000
	CHANNELS	6	Xposition	Yposition	Zposition	Yrotation	Xrotation	Zrotation
	JOINT	LeftThigh
	{
		OFFSET	7.642	0.000	-0.000
		CHANNELS	3	Yrotation	Xrotation	Zrotation
		JOINT	LeftShin
		{
			OFFSET	0.000	-40.759	0.000
			CHANNELS	3	Yrotation	Xrotation	Zrotation
			JOINT	LeftFoot
			{
				OFFSET	0.000	-40.854	-0.059
				CHANNELS	3	Yrotation	Xrotation	Zrotation
				JOINT	LeftToe
				{
					OFFSET	0.000	-12.409	5.879
					CHANNELS	3	Yrotation	Xrotation	Zrotation
					End Site
					{
						OFFSET	0.000	-7.016	1.185
					}
				}
			}
		}
	}
	JOINT	RightThigh
	{
		OFFSET	-7.642	-0.000	-0.000
		CHANNELS	3	Yrotation	Xrotation	Zrotation
		JOINT	RightShin
		{
			OFFSET	-0.000	-40.759	-0.000
			CHANNELS	3	Yrotation	Xrotation	Zrotation
			JOINT	RightFoot
			{
				OFFSET	-0.000	-40.854	-0.059
				CHANNELS	3	Yrotation	Xrotation	Zrotation
				JOINT	RightToe
				{
					OFFSET	0.000	-12.409	5.879
					CHANNELS	3	Yrotation	Xrotation	Zrotation
					End Site
					{
						OFFSET	0.000	-7.016	1.185
					}
				}
			}
		}
	}
	JOINT	Spine1
	{
		OFFSET	0.000	8.005	-3.725
		CHANNELS	3	Yrotation	Xrotation	Zrotation
		JOINT	Spine2
		{
			OFFSET	0.000	-7.164	-0.000
			CHANNELS	3	Yrotation	Xrotation	Zrotation
			JOINT	Spine3
			{
				OFFSET	-0.000	-7.164	-0.000
				CHANNELS	3	Yrotation	Xrotation	Zrotation
				JOINT	Spine4
				{
					OFFSET	0.000	-12.097	-0.000
					CHANNELS	3	Yrotation	Xrotation	Zrotation
					JOINT	LeftShoulder
					{
						OFFSET	-6.642	-11.736	1.807
						CHANNELS	3	Yrotation	Xrotation	Zrotation
						JOINT	LeftArm
						{
							OFFSET	-0.000	-12.849	0.000
							CHANNELS	3	Yrotation	Xrotation	Zrotation
							JOINT	LeftForeArm
							{
								OFFSET	0.000	-24.625	0.000
								CHANNELS	3	Yrotation	Xrotation	Zrotation
								JOINT	LeftHand
								{
									OFFSET	-0.000	-27.116	0.000
									CHANNELS	3	Yrotation	Xrotation	Zrotation
									JOINT	LeftFinger1Metacarpal
									{
										OFFSET	2.664	-1.988	0.099
										CHANNELS	3	Yrotation	Xrotation	Zrotation
										JOINT	LeftFinger1Proximal
										{
											OFFSET	0.000	-3.769	0.000
											CHANNELS	3	Yrotation	Xrotation	Zrotation
											JOINT	LeftFinger1Distal
											{
												OFFSET	0.000	-2.861	0.000
												CHANNELS	3	Yrotation	Xrotation	Zrotation
												End Site
												{
													OFFSET	0.000	-3.269	-0.000
												}
											}
										}
									}
									JOINT	LeftFinger2Metacarpal
									{
										OFFSET	1.534	-2.531	0.099
										CHANNELS	3	Yrotation	Xrotation	Zrotation
										JOINT	LeftFinger2Proximal
										{
											OFFSET	-0.000	-5.243	-0.000
											CHANNELS	3	Yrotation	Xrotation	Zrotation
											JOINT	LeftFinger2Medial
											{
												OFFSET	-0.000	-4.425	0.000
												CHANNELS	3	Yrotation	Xrotation	Zrotation
												JOINT	LeftFinger2Distal
												{
													OFFSET	-0.000	-2.723	0.000
													CHANNELS	3	Yrotation	Xrotation	Zrotation
													End Site
													{
														OFFSET	-0.000	-2.668	-0.000
													}
												}
											}
										}
									}
									JOINT	LeftFinger3Metacarpal
									{
										OFFSET	0.521	-2.647	0.099
										CHANNELS	3	Yrotation	Xrotation	Zrotation
										JOINT	LeftFinger3Proximal
										{
											OFFSET	-0.000	-5.132	-0.000
											CHANNELS	3	Yrotation	Xrotation	Zrotation
											JOINT	LeftFinger3Medial
											{
												OFFSET	-0.000	-4.496	-0.000
												CHANNELS	3	Yrotation	Xrotation	Zrotation
												JOINT	LeftFinger3Distal
												{
													OFFSET	-0.000	-2.965	0.000
													CHANNELS	3	Yrotation	Xrotation	Zrotation
													End Site
													{
														OFFSET	-0.000	-2.868	-0.000
													}
												}
											}
										}
									}
									JOINT	LeftFinger4Metacarpal
									{
										OFFSET	-0.524	-2.624	0.099
										CHANNELS	3	Yrotation	Xrotation	Zrotation
										JOINT	LeftFinger4Proximal
										{
											OFFSET	-0.000	-4.891	0.000
											CHANNELS	3	Yrotation	Xrotation	Zrotation
											JOINT	LeftFinger4Medial
											{
												OFFSET	-0.000	-4.243	-0.000
												CHANNELS	3	Yrotation	Xrotation	Zrotation
												JOINT	LeftFinger4Distal
												{
													OFFSET	-0.000	-2.737	0.000
													CHANNELS	3	Yrotation	Xrotation	Zrotation
													End Site
													{
														OFFSET	-0.000	-2.664	-0.000
													}
												}
											}
										}
									}
									JOINT	LeftFinger5Metacarpal
									{
										OFFSET	-1.423	-2.380	0.098
										CHANNELS	3	Yrotation	Xrotation	Zrotation
										JOINT	LeftFinger5Proximal
										{
											OFFSET	-0.000	-4.585	-0.000
											CHANNELS	3	Yrotation	Xrotation	Zrotation
											JOINT	LeftFinger5Medial
											{
												OFFSET	-0.000	-3.598	0.000
												CHANNELS	3	Yrotation	Xrotation	Zrotation
												JOINT	LeftFinger5Distal
												{
													OFFSET	-0.000	-2.262	-0.000
													CHANNELS	3	Yrotation	Xrotation	Zrotation
													End Site
													{
														OFFSET	-0.000	-2.304	0.000
													}
												}
											}
										}
									}
								}
							}
						}
					}
					JOINT	Neck
					{
						OFFSET	0.000	-19.121	-0.000
						CHANNELS	3	Yrotation	Xrotation	Zrotation
						JOINT	Head
						{
							OFFSET	0.000	-9.862	0.000
							CHANNELS	3	Yrotation	Xrotation	Zrotation
							End Site
							{
								OFFSET	0.000	-14.898	0.000
							}
						}
					}
					JOINT	RightShoulder
					{
						OFFSET	6.642	-11.736	1.807
						CHANNELS	3	Yrotation	Xrotation	Zrotation
						JOINT	RightArm
						{
							OFFSET	-0.000	-12.849	-0.000
							CHANNELS	3	Yrotation	Xrotation	Zrotation
							JOINT	RightForeArm
							{
								OFFSET	-0.000	-24.625	0.000
								CHANNELS	3	Yrotation	Xrotation	Zrotation
								JOINT	RightHand
								{
									OFFSET	0.000	-27.116	0.000
									CHANNELS	3	Yrotation	Xrotation	Zrotation
									JOINT	RightFinger1Metacarpal
									{
										OFFSET	-2.664	-1.988	0.099
										CHANNELS	3	Yrotation	Xrotation	Zrotation
										JOINT	RightFinger1Proximal
										{
											OFFSET	-0.000	-3.769	0.000
											CHANNELS	3	Yrotation	Xrotation	Zrotation
											JOINT	RightFinger1Distal
											{
												OFFSET	-0.000	-2.861	-0.000
												CHANNELS	3	Yrotation	Xrotation	Zrotation
												End Site
												{
													OFFSET	-0.000	-3.269	-0.000
												}
											}
										}
									}
									JOINT	RightFinger2Metacarpal
									{
										OFFSET	-1.534	-2.531	0.099
										CHANNELS	3	Yrotation	Xrotation	Zrotation
										JOINT	RightFinger2Proximal
										{
											OFFSET	0.000	-5.243	-0.000
											CHANNELS	3	Yrotation	Xrotation	Zrotation
											JOINT	RightFinger2Medial
											{
												OFFSET	-0.000	-4.425	-0.000
												CHANNELS	3	Yrotation	Xrotation	Zrotation
												JOINT	RightFinger2Distal
												{
													OFFSET	0.000	-2.723	0.000
													CHANNELS	3	Yrotation	Xrotation	Zrotation
													End Site
													{
														OFFSET	0.000	-2.668	-0.000
													}
												}
											}
										}
									}
									JOINT	RightFinger3Metacarpal
									{
										OFFSET	-0.521	-2.647	0.098
										CHANNELS	3	Yrotation	Xrotation	Zrotation
										JOINT	RightFinger3Proximal
										{
											OFFSET	0.000	-5.132	-0.000
											CHANNELS	3	Yrotation	Xrotation	Zrotation
											JOINT	RightFinger3Medial
											{
												OFFSET	-0.000	-4.496	-0.000
												CHANNELS	3	Yrotation	Xrotation	Zrotation
												JOINT	RightFinger3Distal
												{
													OFFSET	-0.000	-2.965	-0.000
													CHANNELS	3	Yrotation	Xrotation	Zrotation
													End Site
													{
														OFFSET	0.000	-2.868	-0.000
													}
												}
											}
										}
									}
									JOINT	RightFinger4Metacarpal
									{
										OFFSET	0.524	-2.624	0.099
										CHANNELS	3	Yrotation	Xrotation	Zrotation
										JOINT	RightFinger4Proximal
										{
											OFFSET	0.000	-4.891	0.000
											CHANNELS	3	Yrotation	Xrotation	Zrotation
											JOINT	RightFinger4Medial
											{
												OFFSET	-0.000	-4.243	-0.000
												CHANNELS	3	Yrotation	Xrotation	Zrotation
												JOINT	RightFinger4Distal
												{
													OFFSET	0.000	-2.737	0.000
													CHANNELS	3	Yrotation	Xrotation	Zrotation
													End Site
													{
														OFFSET	0.000	-2.664	-0.000
													}
												}
											}
										}
									}
									JOINT	RightFinger5Metacarpal
									{
										OFFSET	1.423	-2.380	0.099
										CHANNELS	3	Yrotation	Xrotation	Zrotation
										JOINT	RightFinger5Proximal
										{
											OFFSET	0.000	-4.585	-0.000
											CHANNELS	3	Yrotation	Xrotation	Zrotation
											JOINT	RightFinger5Medial
											{
												OFFSET	0.000	-3.598	0.000
												CHANNELS	3	Yrotation	Xrotation	Zrotation
												JOINT	RightFinger5Distal
												{
													OFFSET	-0.000	-2.262	0.000
													CHANNELS	3	Yrotation	Xrotation	Zrotation
													End Site
													{
														OFFSET	0.000	-2.304	0.000
													}
												}
											}
										}
									}
								}
							}
						}
					}
				}
			}
		}
	}
}
MOTION
Frames:	4
Frame Time:	0.010
-0.000	88.689	0.000	-0.000	-0.000	-0.000	-90.000	-0.000	-0.000	-0.000	-0.000	0.000	-90.000	90.000	-0.000	0.000	-0.000	-0.000	-270.000	0.000	-0.000	-0.000	-0.000	-0.000	-270.000	90.000	-0.000	0.000	-0.000	0.000	-0.000	0.000	-180.000	0.000	-0.000	0.000	0.000	-0.000	0.000	0.000	-0.000	0.000	-15.000	-0.000	-90.000	-90.000	0.000	-345.000	-0.000	-0.000	-0.000	-0.000	-0.000	-0.000	-40.893	20.705	-337.792	-355.893	339.295	-22.208	-0.000	-0.000	-0.000	-0.000	-0.000	-350.000	-0.000	0.000	-10.000	-0.000	0.000	-0.000	-0.000	0.000	-0.000	-0.000	-0.000	0.000	0.000	0.000	-0.000	-0.000	0.000	-0.000	0.000	0.000	-0.000	0.000	-0.000	-10.000	-0.000	0.000	-350.000	-0.000	-0.000	-0.000	0.000	0.000	-0.000	0.000	-0.000	-20.000	0.000	0.000	-340.000	-0.000	0.000	-0.000	0.000	0.000	0.000	0.000	-0.000	0.000	0.000	-0.000	0.000	-345.000	-0.000	-270.000	-270.000	0.000	-15.000	-0.000	-0.000	-0.000	-0.000	-0.000	-0.000	-319.107	20.705	-22.208	-4.107	339.295	-337.792	-0.000	-0.000	-0.000	0.000	-0.000	-10.000	0.000	0.000	-350.000	-0.000	0.000	-0.000	-0.000	0.000	-0.000	0.000	-0.000	-0.000	-0.000	0.000	0.000	0.000	0.000	-0.000	-0.000	-0.000	-0.000	-0.000	-0.000	-350.000	0.000	0.000	-10.000	-0.000	-0.000	-0.000	-0.000	-0.000	-0.000	-0.000	-0.000	-340.000	-0.000	0.000	-20.000	0.000	0.000	0.000	-0.000	0.000	-0.000	
-0.000	88.689	0.000	-0.000	-0.000	-0.000	-90.000	-0.000	-0.000	-0.000	-0.000	0.000	-90.000	90.000	-0.000	0.000	-0.000	-0.000	-270.000	0.000	-0.000	-0.000	-0.000	-0.000	-270.000	90.000	-0.000	0.000	-0.000	0.000	-0.000	0.000	-180.000	0.000	-0.000	0.000	0.000	-0.000	0.000	0.000	-0.000	0.000	-15.000	-0.000	-90.000	-90.000	0.000	-345.000	-0.000	-0.000	-0.000	-0.000	-0.000	-0.000	-40.893	20.705	-337.792	-355.893	339.295	-22.208	-0.000	-0.000	-0.000	-0.000	-0.000	-350.000	-0.000	0.000	-10.000	-0.000	0.000	-0.000	-0.000	0.000	-0.000	-0.000	-0.000	0.000	0.000	0.000	-0.000	-0.000	0.000	-0.000	0.000	0.000	-0.000	0.000	-0.000	-10.000	-0.000	0.000	-350.000	-0.000	-0.000	-0.000	0.000	0.000	-0.000	0.000	-0.000	-20.000	0.000	0.000	-340.000	-0.000	0.000	-0.000	0.000	0.000	0.000	0.000	-0.000	0.000	0.000	-0.000	0.000	-345.000	-0.000	-270.000	-270.000	0.000	-15.000	-0.000	-0.000	-0.000	-0.000	-0.000	-0.000	-319.107	20.705	-22.208	-4.107	339.295	-337.792	-0.000	-0.000	-0.000	0.000	-0.000	-10.000	0.000	0.000	-350.000	-0.000	0.000	-0.000	-0.000	0.000	-0.000	0.000	-0.000	-0.000	-0.000	0.000	0.000	0.000	0.000	-0.000	-0.000	-0.000	-0.000	-0.000	-0.000	-350.000	0.000	0.000	-10.000	-0.000	-0.000	-0.000	-0.000	-0.000	-0.000	-0.000	-0.000	-340.000	-0.000	0.000	-20.000	0.000	0.000	0.000	-0.000	0.000	-0.000	
1.864	56.580	-8.238	-345.108	4.052	-356.999	-84.658	356.750	-278.398	-0.003	-0.003	-97.553	-289.410	76.691	-186.147	-0.000	0.598	0.000	-301.845	358.844	-82.650	0.002	-0.002	-267.189	-87.753	78.798	-182.682	0.000	3.039	-0.271	-355.655	6.171	-178.520	-4.365	353.801	-358.513	-4.358	353.810	-358.515	0.000	-0.000	-0.000	-3.955	4.016	-93.125	-144.987	296.863	-295.099	-31.057	344.330	-300.791	-37.149	52.847	-9.479	-66.400	5.021	-329.267	-8.592	326.595	-26.967	-0.000	340.470	-0.000	-0.000	0.000	-350.000	-357.248	337.983	-14.076	0.000	336.822	-0.000	-0.000	344.548	-0.000	-0.000	-0.000	0.000	-359.984	345.755	-0.131	-0.000	345.755	0.000	-0.000	350.503	-0.000	-357.274	357.452	-10.128	-0.017	354.112	-357.011	-0.000	353.657	-0.000	-0.000	355.771	-0.000	-354.070	354.881	-20.590	-0.445	357.095	-347.075	0.000	357.163	0.000	-0.000	358.108	-0.000	-358.183	8.348	-1.320	-358.183	8.348	-1.320	-353.488	8.859	-272.493	-242.261	318.213	-93.785	-20.416	349.876	-27.877	-293.323	50.365	-329.673	-275.719	20.697	-30.596	-6.827	336.088	-355.216	-0.000	343.812	-0.000	0.000	-0.000	-10.000	-1.430	330.193	-354.631	-0.000	330.293	-0.000	-0.000	340.195	-0.000	0.000	-0.000	-0.000	-1.247	330.985	-355.183	0.000	330.835	-0.000	-0.000	340.557	-0.000	-2.726	357.452	-349.872	-356.763	333.875	-13.887	-0.000	332.695	0.000	-0.000	341.796	-0.000	-5.930	354.881	-339.410	-357.523	328.992	-8.913	-0.000	328.466	0.000	-0.000	338.977	-0.000	
1.864	56.586	-8.233	-345.089	4.047	-357.000	-84.670	356.753	-278.452	-0.003	-0.004	-97.515	-289.262	76.573	-186.008	-0.000	0.600	-0.000	-301.905	358.826	-82.659	0.002	-0.002	-267.188	-87.672	78.868	-182.641	0.000	3.074	-0.276	-355.653	6.170	-178.519	-4.367	353.803	-358.511	-4.361	353.812	-358.513	0.000	-0.000	-0.000	-3.926	4.005	-93.134	-144.936	296.860	-295.101	-31.044	344.329	-300.837	-37.039	52.756	-9.414	-66.398	5.029	-329.266	-8.609	326.617	-26.955	-0.000	340.490	-0.000	-0.000	0.000	-350.000	-357.251	337.985	-14.065	0.000	336.825	-0.000	-0.000	344.550	-0.000	-0.000	-0.000	0.000	-359.987	345.751	-0.105	-0.000	345.751	-0.000	-0.000	350.501	-0.000	-357.274	357.452	-10.128	-0.019	354.105	-356.991	-0.000	353.655	-0.000	-0.000	355.770	-0.000	-354.070	354.881	-20.590	-0.444	357.094	-347.059	-0.000	357.158	-0.000	-0.000	358.105	-0.000	-358.108	8.329	-1.304	-358.108	8.329	-1.304	-353.501	8.872	-272.514	-242.290	318.199	-93.706	-20.394	349.849	-27.869	-293.218	50.376	-329.429	-275.717	20.686	-30.603	-6.839	336.057	-355.233	-0.000	343.793	-0.000	0.000	-0.000	-10.000	-1.400	330.251	-354.732	-0.000	330.352	-0.000	-0.000	340.235	-0.000	0.000	-0.000	-0.000	-1.229	331.056	-355.240	0.000	330.907	-0.000	-0.000	340.604	-0.000	-2.726	357.452	-349.872	-356.757	333.901	-13.925	0.000	332.714	-0.000	-0.000	341.809	-0.000	-5.930	354.881	-339.410	-357.522	328.967	-8.908	0.000	328.438	-0.000	-0.000	338.959	-0.000	
